<mxfile host="app.diagrams.net" modified="2023-09-30T15:45:33.144Z" agent="Mozilla/5.0 (Windows NT 10.0; Win64; x64) AppleWebKit/537.36 (KHTML, like Gecko) Chrome/117.0.0.0 Safari/537.36" etag="XhEBezauHRuK4dHy2qy_" version="22.0.0" type="github">
  <diagram name="Page-1" id="GAhWBHkRMR_FWIA39p13">
    <mxGraphModel dx="2035" dy="1022" grid="1" gridSize="10" guides="1" tooltips="1" connect="1" arrows="1" fold="1" page="1" pageScale="1" pageWidth="827" pageHeight="1169" math="0" shadow="0">
      <root>
        <mxCell id="0" />
        <mxCell id="1" parent="0" />
        <mxCell id="1mSQy6n3hkQPdd9i9arQ-1" value="AWS Cloud" style="points=[[0,0],[0.25,0],[0.5,0],[0.75,0],[1,0],[1,0.25],[1,0.5],[1,0.75],[1,1],[0.75,1],[0.5,1],[0.25,1],[0,1],[0,0.75],[0,0.5],[0,0.25]];outlineConnect=0;gradientColor=none;html=1;whiteSpace=wrap;fontSize=12;fontStyle=0;container=1;pointerEvents=0;collapsible=0;recursiveResize=0;shape=mxgraph.aws4.group;grIcon=mxgraph.aws4.group_aws_cloud_alt;strokeColor=#232F3E;fillColor=none;verticalAlign=top;align=left;spacingLeft=30;fontColor=#232F3E;dashed=0;" vertex="1" parent="1">
          <mxGeometry x="40" width="2200" height="1680" as="geometry" />
        </mxCell>
        <mxCell id="1mSQy6n3hkQPdd9i9arQ-2" value="Region" style="points=[[0,0],[0.25,0],[0.5,0],[0.75,0],[1,0],[1,0.25],[1,0.5],[1,0.75],[1,1],[0.75,1],[0.5,1],[0.25,1],[0,1],[0,0.75],[0,0.5],[0,0.25]];outlineConnect=0;gradientColor=none;html=1;whiteSpace=wrap;fontSize=12;fontStyle=0;container=1;pointerEvents=0;collapsible=0;recursiveResize=0;shape=mxgraph.aws4.group;grIcon=mxgraph.aws4.group_region;strokeColor=#147EBA;fillColor=none;verticalAlign=top;align=left;spacingLeft=30;fontColor=#147EBA;dashed=1;" vertex="1" parent="1">
          <mxGeometry x="70" y="20" width="2100" height="1630" as="geometry" />
        </mxCell>
        <mxCell id="1mSQy6n3hkQPdd9i9arQ-47" value="Security&amp;nbsp; &amp;amp; Compliance" style="fillColor=none;strokeColor=#DD3522;verticalAlign=top;fontStyle=0;fontColor=#DD3522;whiteSpace=wrap;html=1;" vertex="1" parent="1mSQy6n3hkQPdd9i9arQ-2">
          <mxGeometry x="170" y="1380" width="300" height="130" as="geometry" />
        </mxCell>
        <mxCell id="1mSQy6n3hkQPdd9i9arQ-58" value="AWS Shield" style="sketch=0;outlineConnect=0;fontColor=#232F3E;gradientColor=none;strokeColor=#ffffff;fillColor=#232F3E;dashed=0;verticalLabelPosition=middle;verticalAlign=bottom;align=center;html=1;whiteSpace=wrap;fontSize=10;fontStyle=1;spacing=3;shape=mxgraph.aws4.productIcon;prIcon=mxgraph.aws4.shield;" vertex="1" parent="1mSQy6n3hkQPdd9i9arQ-2">
          <mxGeometry x="40" y="460" width="56" height="56" as="geometry" />
        </mxCell>
        <mxCell id="1mSQy6n3hkQPdd9i9arQ-59" value="" style="sketch=0;outlineConnect=0;fontColor=#232F3E;gradientColor=none;strokeColor=#ffffff;fillColor=#232F3E;dashed=0;verticalLabelPosition=middle;verticalAlign=bottom;align=center;html=1;whiteSpace=wrap;fontSize=10;fontStyle=1;spacing=3;shape=mxgraph.aws4.productIcon;prIcon=mxgraph.aws4.firewall_manager;" vertex="1" parent="1mSQy6n3hkQPdd9i9arQ-2">
          <mxGeometry x="40" y="381" width="56" height="56" as="geometry" />
        </mxCell>
        <mxCell id="1mSQy6n3hkQPdd9i9arQ-60" value="" style="sketch=0;outlineConnect=0;fontColor=#232F3E;gradientColor=none;strokeColor=#ffffff;fillColor=#232F3E;dashed=0;verticalLabelPosition=middle;verticalAlign=bottom;align=center;html=1;whiteSpace=wrap;fontSize=10;fontStyle=1;spacing=3;shape=mxgraph.aws4.productIcon;prIcon=mxgraph.aws4.cognito;" vertex="1" parent="1mSQy6n3hkQPdd9i9arQ-2">
          <mxGeometry x="40" y="300" width="56" height="50" as="geometry" />
        </mxCell>
        <mxCell id="1mSQy6n3hkQPdd9i9arQ-62" value="Route53&lt;br&gt;" style="sketch=0;points=[[0,0,0],[0.25,0,0],[0.5,0,0],[0.75,0,0],[1,0,0],[0,1,0],[0.25,1,0],[0.5,1,0],[0.75,1,0],[1,1,0],[0,0.25,0],[0,0.5,0],[0,0.75,0],[1,0.25,0],[1,0.5,0],[1,0.75,0]];outlineConnect=0;fontColor=#232F3E;fillColor=#8C4FFF;strokeColor=#ffffff;dashed=0;verticalLabelPosition=bottom;verticalAlign=top;align=center;html=1;fontSize=12;fontStyle=0;aspect=fixed;shape=mxgraph.aws4.resourceIcon;resIcon=mxgraph.aws4.route_53;" vertex="1" parent="1mSQy6n3hkQPdd9i9arQ-2">
          <mxGeometry x="38" y="140" width="58" height="58" as="geometry" />
        </mxCell>
        <mxCell id="1mSQy6n3hkQPdd9i9arQ-64" value="" style="edgeStyle=orthogonalEdgeStyle;html=1;endArrow=none;elbow=vertical;startArrow=openThin;startFill=0;strokeColor=#545B64;rounded=0;strokeWidth=2;" edge="1" parent="1mSQy6n3hkQPdd9i9arQ-2" source="1mSQy6n3hkQPdd9i9arQ-60" target="1mSQy6n3hkQPdd9i9arQ-62">
          <mxGeometry width="100" relative="1" as="geometry">
            <mxPoint x="17" y="250" as="sourcePoint" />
            <mxPoint x="117" y="250" as="targetPoint" />
          </mxGeometry>
        </mxCell>
        <mxCell id="1mSQy6n3hkQPdd9i9arQ-66" value="VPC Gateway" style="sketch=0;outlineConnect=0;fontColor=#232F3E;gradientColor=none;fillColor=#8C4FFF;strokeColor=none;dashed=0;verticalLabelPosition=bottom;verticalAlign=top;align=center;html=1;fontSize=12;fontStyle=0;aspect=fixed;pointerEvents=1;shape=mxgraph.aws4.vpc_carrier_gateway;" vertex="1" parent="1mSQy6n3hkQPdd9i9arQ-2">
          <mxGeometry x="480" y="610" width="56" height="56" as="geometry" />
        </mxCell>
        <mxCell id="1mSQy6n3hkQPdd9i9arQ-29" value="VPC" style="points=[[0,0],[0.25,0],[0.5,0],[0.75,0],[1,0],[1,0.25],[1,0.5],[1,0.75],[1,1],[0.75,1],[0.5,1],[0.25,1],[0,1],[0,0.75],[0,0.5],[0,0.25]];outlineConnect=0;gradientColor=none;html=1;whiteSpace=wrap;fontSize=12;fontStyle=0;container=1;pointerEvents=0;collapsible=0;recursiveResize=0;shape=mxgraph.aws4.group;grIcon=mxgraph.aws4.group_vpc;strokeColor=#248814;fillColor=none;verticalAlign=top;align=left;spacingLeft=30;fontColor=#AAB7B8;dashed=0;" vertex="1" parent="1mSQy6n3hkQPdd9i9arQ-2">
          <mxGeometry x="163" y="771" width="650" height="560" as="geometry" />
        </mxCell>
        <mxCell id="1mSQy6n3hkQPdd9i9arQ-30" value="Availability Zone" style="fillColor=none;strokeColor=#147EBA;dashed=1;verticalAlign=top;fontStyle=0;fontColor=#147EBA;whiteSpace=wrap;html=1;" vertex="1" parent="1mSQy6n3hkQPdd9i9arQ-29">
          <mxGeometry x="60" y="162" width="220" height="378" as="geometry" />
        </mxCell>
        <mxCell id="1mSQy6n3hkQPdd9i9arQ-33" value="Private subnet" style="points=[[0,0],[0.25,0],[0.5,0],[0.75,0],[1,0],[1,0.25],[1,0.5],[1,0.75],[1,1],[0.75,1],[0.5,1],[0.25,1],[0,1],[0,0.75],[0,0.5],[0,0.25]];outlineConnect=0;gradientColor=none;html=1;whiteSpace=wrap;fontSize=12;fontStyle=0;container=1;pointerEvents=0;collapsible=0;recursiveResize=0;shape=mxgraph.aws4.group;grIcon=mxgraph.aws4.group_security_group;grStroke=0;strokeColor=#147EBA;fillColor=#E6F2F8;verticalAlign=top;align=left;spacingLeft=30;fontColor=#147EBA;dashed=0;" vertex="1" parent="1mSQy6n3hkQPdd9i9arQ-29">
          <mxGeometry x="70" y="371" width="200" height="159" as="geometry" />
        </mxCell>
        <mxCell id="1mSQy6n3hkQPdd9i9arQ-45" value="Amazon Aurora" style="sketch=0;points=[[0,0,0],[0.25,0,0],[0.5,0,0],[0.75,0,0],[1,0,0],[0,1,0],[0.25,1,0],[0.5,1,0],[0.75,1,0],[1,1,0],[0,0.25,0],[0,0.5,0],[0,0.75,0],[1,0.25,0],[1,0.5,0],[1,0.75,0]];outlineConnect=0;fontColor=#232F3E;fillColor=#C925D1;strokeColor=#ffffff;dashed=0;verticalLabelPosition=bottom;verticalAlign=top;align=center;html=1;fontSize=12;fontStyle=0;aspect=fixed;shape=mxgraph.aws4.resourceIcon;resIcon=mxgraph.aws4.aurora;" vertex="1" parent="1mSQy6n3hkQPdd9i9arQ-33">
          <mxGeometry x="110" y="69" width="56" height="56" as="geometry" />
        </mxCell>
        <mxCell id="1mSQy6n3hkQPdd9i9arQ-43" value="Elastic Cache" style="sketch=0;points=[[0,0,0],[0.25,0,0],[0.5,0,0],[0.75,0,0],[1,0,0],[0,1,0],[0.25,1,0],[0.5,1,0],[0.75,1,0],[1,1,0],[0,0.25,0],[0,0.5,0],[0,0.75,0],[1,0.25,0],[1,0.5,0],[1,0.75,0]];outlineConnect=0;fontColor=#232F3E;fillColor=#C925D1;strokeColor=#ffffff;dashed=0;verticalLabelPosition=bottom;verticalAlign=top;align=center;html=1;fontSize=12;fontStyle=0;aspect=fixed;shape=mxgraph.aws4.resourceIcon;resIcon=mxgraph.aws4.elasticache;" vertex="1" parent="1mSQy6n3hkQPdd9i9arQ-33">
          <mxGeometry x="16" y="69" width="56" height="56" as="geometry" />
        </mxCell>
        <mxCell id="1mSQy6n3hkQPdd9i9arQ-40" value="Amazon API Gateway" style="sketch=0;points=[[0,0,0],[0.25,0,0],[0.5,0,0],[0.75,0,0],[1,0,0],[0,1,0],[0.25,1,0],[0.5,1,0],[0.75,1,0],[1,1,0],[0,0.25,0],[0,0.5,0],[0,0.75,0],[1,0.25,0],[1,0.5,0],[1,0.75,0]];outlineConnect=0;fontColor=#232F3E;fillColor=#8C4FFF;strokeColor=#ffffff;dashed=0;verticalLabelPosition=bottom;verticalAlign=top;align=center;html=1;fontSize=12;fontStyle=0;aspect=fixed;shape=mxgraph.aws4.resourceIcon;resIcon=mxgraph.aws4.api_gateway;" vertex="1" parent="1mSQy6n3hkQPdd9i9arQ-29">
          <mxGeometry x="297" y="60" width="56" height="56" as="geometry" />
        </mxCell>
        <mxCell id="1mSQy6n3hkQPdd9i9arQ-73" value="" style="edgeStyle=orthogonalEdgeStyle;html=1;endArrow=none;elbow=vertical;startArrow=openThin;startFill=0;strokeColor=#545B64;rounded=0;strokeWidth=2;" edge="1" parent="1mSQy6n3hkQPdd9i9arQ-29" source="1mSQy6n3hkQPdd9i9arQ-39">
          <mxGeometry width="100" relative="1" as="geometry">
            <mxPoint x="477" y="10" as="sourcePoint" />
            <mxPoint x="353" y="88" as="targetPoint" />
            <Array as="points">
              <mxPoint x="477" y="88" />
            </Array>
          </mxGeometry>
        </mxCell>
        <mxCell id="1mSQy6n3hkQPdd9i9arQ-70" value="Private Link" style="image;aspect=fixed;html=1;points=[];align=center;fontSize=12;image=img/lib/azure2/networking/Private_Link.svg;" vertex="1" parent="1mSQy6n3hkQPdd9i9arQ-2">
          <mxGeometry x="370" y="680" width="56" height="51.33" as="geometry" />
        </mxCell>
        <mxCell id="1mSQy6n3hkQPdd9i9arQ-72" value="" style="edgeStyle=orthogonalEdgeStyle;html=1;endArrow=block;elbow=vertical;startArrow=block;startFill=1;endFill=1;strokeColor=#545B64;rounded=0;strokeWidth=2;entryX=0.5;entryY=0;entryDx=0;entryDy=0;entryPerimeter=0;" edge="1" parent="1mSQy6n3hkQPdd9i9arQ-2" source="1mSQy6n3hkQPdd9i9arQ-70" target="1mSQy6n3hkQPdd9i9arQ-40">
          <mxGeometry width="100" relative="1" as="geometry">
            <mxPoint x="470" y="800" as="sourcePoint" />
            <mxPoint x="570" y="800" as="targetPoint" />
            <Array as="points">
              <mxPoint x="488" y="720" />
            </Array>
          </mxGeometry>
        </mxCell>
        <mxCell id="1mSQy6n3hkQPdd9i9arQ-77" value="VPC Payment Process" style="points=[[0,0],[0.25,0],[0.5,0],[0.75,0],[1,0],[1,0.25],[1,0.5],[1,0.75],[1,1],[0.75,1],[0.5,1],[0.25,1],[0,1],[0,0.75],[0,0.5],[0,0.25]];outlineConnect=0;gradientColor=none;html=1;whiteSpace=wrap;fontSize=12;fontStyle=0;container=1;pointerEvents=0;collapsible=0;recursiveResize=0;shape=mxgraph.aws4.group;grIcon=mxgraph.aws4.group_vpc;strokeColor=#248814;fillColor=none;verticalAlign=top;align=left;spacingLeft=30;fontColor=#AAB7B8;dashed=0;" vertex="1" parent="1mSQy6n3hkQPdd9i9arQ-2">
          <mxGeometry x="900" y="100" width="440" height="326" as="geometry" />
        </mxCell>
        <mxCell id="1mSQy6n3hkQPdd9i9arQ-78" value="Private subnet" style="points=[[0,0],[0.25,0],[0.5,0],[0.75,0],[1,0],[1,0.25],[1,0.5],[1,0.75],[1,1],[0.75,1],[0.5,1],[0.25,1],[0,1],[0,0.75],[0,0.5],[0,0.25]];outlineConnect=0;gradientColor=none;html=1;whiteSpace=wrap;fontSize=12;fontStyle=0;container=1;pointerEvents=0;collapsible=0;recursiveResize=0;shape=mxgraph.aws4.group;grIcon=mxgraph.aws4.group_security_group;grStroke=0;strokeColor=#147EBA;fillColor=#E6F2F8;verticalAlign=top;align=left;spacingLeft=30;fontColor=#147EBA;dashed=0;" vertex="1" parent="1mSQy6n3hkQPdd9i9arQ-77">
          <mxGeometry x="39" y="32.5" width="141" height="235" as="geometry" />
        </mxCell>
        <mxCell id="1mSQy6n3hkQPdd9i9arQ-79" value="" style="sketch=0;points=[[0,0,0],[0.25,0,0],[0.5,0,0],[0.75,0,0],[1,0,0],[0,1,0],[0.25,1,0],[0.5,1,0],[0.75,1,0],[1,1,0],[0,0.25,0],[0,0.5,0],[0,0.75,0],[1,0.25,0],[1,0.5,0],[1,0.75,0]];outlineConnect=0;fontColor=#232F3E;fillColor=#ED7100;strokeColor=#ffffff;dashed=0;verticalLabelPosition=bottom;verticalAlign=top;align=center;html=1;fontSize=12;fontStyle=0;aspect=fixed;shape=mxgraph.aws4.resourceIcon;resIcon=mxgraph.aws4.eks;" vertex="1" parent="1mSQy6n3hkQPdd9i9arQ-78">
          <mxGeometry x="31" y="37" width="56" height="56" as="geometry" />
        </mxCell>
        <mxCell id="1mSQy6n3hkQPdd9i9arQ-80" value="" style="sketch=0;points=[[0,0,0],[0.25,0,0],[0.5,0,0],[0.75,0,0],[1,0,0],[0,1,0],[0.25,1,0],[0.5,1,0],[0.75,1,0],[1,1,0],[0,0.25,0],[0,0.5,0],[0,0.75,0],[1,0.25,0],[1,0.5,0],[1,0.75,0]];outlineConnect=0;fontColor=#232F3E;fillColor=#ED7100;strokeColor=#ffffff;dashed=0;verticalLabelPosition=bottom;verticalAlign=top;align=center;html=1;fontSize=12;fontStyle=0;aspect=fixed;shape=mxgraph.aws4.resourceIcon;resIcon=mxgraph.aws4.ecs;" vertex="1" parent="1mSQy6n3hkQPdd9i9arQ-78">
          <mxGeometry x="31" y="147.5" width="56" height="56" as="geometry" />
        </mxCell>
        <mxCell id="1mSQy6n3hkQPdd9i9arQ-81" value="Private subnet" style="points=[[0,0],[0.25,0],[0.5,0],[0.75,0],[1,0],[1,0.25],[1,0.5],[1,0.75],[1,1],[0.75,1],[0.5,1],[0.25,1],[0,1],[0,0.75],[0,0.5],[0,0.25]];outlineConnect=0;gradientColor=none;html=1;whiteSpace=wrap;fontSize=12;fontStyle=0;container=1;pointerEvents=0;collapsible=0;recursiveResize=0;shape=mxgraph.aws4.group;grIcon=mxgraph.aws4.group_security_group;grStroke=0;strokeColor=#147EBA;fillColor=#E6F2F8;verticalAlign=top;align=left;spacingLeft=30;fontColor=#147EBA;dashed=0;" vertex="1" parent="1mSQy6n3hkQPdd9i9arQ-77">
          <mxGeometry x="280" y="118" width="141" height="130" as="geometry" />
        </mxCell>
        <mxCell id="1mSQy6n3hkQPdd9i9arQ-84" value="Amazon Aurora" style="sketch=0;points=[[0,0,0],[0.25,0,0],[0.5,0,0],[0.75,0,0],[1,0,0],[0,1,0],[0.25,1,0],[0.5,1,0],[0.75,1,0],[1,1,0],[0,0.25,0],[0,0.5,0],[0,0.75,0],[1,0.25,0],[1,0.5,0],[1,0.75,0]];outlineConnect=0;fontColor=#232F3E;fillColor=#C925D1;strokeColor=#ffffff;dashed=0;verticalLabelPosition=bottom;verticalAlign=top;align=center;html=1;fontSize=12;fontStyle=0;aspect=fixed;shape=mxgraph.aws4.resourceIcon;resIcon=mxgraph.aws4.aurora;" vertex="1" parent="1mSQy6n3hkQPdd9i9arQ-81">
          <mxGeometry x="26" y="37" width="56" height="56" as="geometry" />
        </mxCell>
        <mxCell id="1mSQy6n3hkQPdd9i9arQ-93" value="Read Config Data" style="text;html=1;align=center;verticalAlign=middle;resizable=0;points=[];autosize=1;strokeColor=none;fillColor=none;" vertex="1" parent="1mSQy6n3hkQPdd9i9arQ-77">
          <mxGeometry x="170" y="128" width="120" height="30" as="geometry" />
        </mxCell>
        <mxCell id="1mSQy6n3hkQPdd9i9arQ-87" value="" style="rounded=1;arcSize=10;dashed=1;strokeColor=#ff0000;fillColor=none;gradientColor=none;dashPattern=8 4;strokeWidth=2;" vertex="1" parent="1mSQy6n3hkQPdd9i9arQ-2">
          <mxGeometry x="1420" y="130" width="199.5" height="100" as="geometry" />
        </mxCell>
        <mxCell id="1mSQy6n3hkQPdd9i9arQ-88" value="DynamoDB" style="sketch=0;points=[[0,0,0],[0.25,0,0],[0.5,0,0],[0.75,0,0],[1,0,0],[0,1,0],[0.25,1,0],[0.5,1,0],[0.75,1,0],[1,1,0],[0,0.25,0],[0,0.5,0],[0,0.75,0],[1,0.25,0],[1,0.5,0],[1,0.75,0]];outlineConnect=0;fontColor=#232F3E;fillColor=#C925D1;strokeColor=#ffffff;dashed=0;verticalLabelPosition=bottom;verticalAlign=top;align=center;html=1;fontSize=12;fontStyle=0;aspect=fixed;shape=mxgraph.aws4.resourceIcon;resIcon=mxgraph.aws4.dynamodb;" vertex="1" parent="1mSQy6n3hkQPdd9i9arQ-2">
          <mxGeometry x="1520" y="146.31" width="56" height="56" as="geometry" />
        </mxCell>
        <mxCell id="1mSQy6n3hkQPdd9i9arQ-89" value="DAX" style="sketch=0;outlineConnect=0;fontColor=#232F3E;gradientColor=none;fillColor=#C925D1;strokeColor=none;dashed=0;verticalLabelPosition=bottom;verticalAlign=top;align=center;html=1;fontSize=12;fontStyle=0;aspect=fixed;pointerEvents=1;shape=mxgraph.aws4.dynamodb_dax;" vertex="1" parent="1mSQy6n3hkQPdd9i9arQ-2">
          <mxGeometry x="1430" y="146.31" width="56" height="51.69" as="geometry" />
        </mxCell>
        <mxCell id="1mSQy6n3hkQPdd9i9arQ-91" value="" style="edgeStyle=orthogonalEdgeStyle;html=1;endArrow=none;elbow=vertical;startArrow=openThin;startFill=0;strokeColor=#545B64;rounded=0;strokeWidth=2;" edge="1" parent="1mSQy6n3hkQPdd9i9arQ-2" source="1mSQy6n3hkQPdd9i9arQ-89">
          <mxGeometry width="100" relative="1" as="geometry">
            <mxPoint x="1140" y="530" as="sourcePoint" />
            <mxPoint x="1070" y="180" as="targetPoint" />
            <Array as="points">
              <mxPoint x="1080" y="180" />
            </Array>
          </mxGeometry>
        </mxCell>
        <mxCell id="1mSQy6n3hkQPdd9i9arQ-86" value="" style="sketch=0;points=[[0,0,0],[0.25,0,0],[0.5,0,0],[0.75,0,0],[1,0,0],[0,1,0],[0.25,1,0],[0.5,1,0],[0.75,1,0],[1,1,0],[0,0.25,0],[0,0.5,0],[0,0.75,0],[1,0.25,0],[1,0.5,0],[1,0.75,0]];outlineConnect=0;fontColor=#232F3E;fillColor=#DD344C;strokeColor=#ffffff;dashed=0;verticalLabelPosition=bottom;verticalAlign=top;align=center;html=1;fontSize=12;fontStyle=0;aspect=fixed;shape=mxgraph.aws4.resourceIcon;resIcon=mxgraph.aws4.security_identity_and_compliance;" vertex="1" parent="1mSQy6n3hkQPdd9i9arQ-2">
          <mxGeometry x="1310" y="140" width="56" height="56" as="geometry" />
        </mxCell>
        <mxCell id="1mSQy6n3hkQPdd9i9arQ-96" value="Payment Cryptography" style="fillColor=none;strokeColor=#DD3522;verticalAlign=top;fontStyle=0;fontColor=#DD3522;whiteSpace=wrap;html=1;" vertex="1" parent="1mSQy6n3hkQPdd9i9arQ-2">
          <mxGeometry x="1093" y="920" width="270" height="160" as="geometry" />
        </mxCell>
        <mxCell id="1mSQy6n3hkQPdd9i9arQ-97" value="" style="sketch=0;points=[[0,0,0],[0.25,0,0],[0.5,0,0],[0.75,0,0],[1,0,0],[0,1,0],[0.25,1,0],[0.5,1,0],[0.75,1,0],[1,1,0],[0,0.25,0],[0,0.5,0],[0,0.75,0],[1,0.25,0],[1,0.5,0],[1,0.75,0]];outlineConnect=0;fontColor=#232F3E;fillColor=#DD344C;strokeColor=#ffffff;dashed=0;verticalLabelPosition=bottom;verticalAlign=top;align=center;html=1;fontSize=12;fontStyle=0;aspect=fixed;shape=mxgraph.aws4.resourceIcon;resIcon=mxgraph.aws4.key_management_service;" vertex="1" parent="1mSQy6n3hkQPdd9i9arQ-2">
          <mxGeometry x="1192" y="951" width="78" height="78" as="geometry" />
        </mxCell>
        <mxCell id="1mSQy6n3hkQPdd9i9arQ-100" value="VPC" style="points=[[0,0],[0.25,0],[0.5,0],[0.75,0],[1,0],[1,0.25],[1,0.5],[1,0.75],[1,1],[0.75,1],[0.5,1],[0.25,1],[0,1],[0,0.75],[0,0.5],[0,0.25]];outlineConnect=0;gradientColor=none;html=1;whiteSpace=wrap;fontSize=12;fontStyle=0;container=1;pointerEvents=0;collapsible=0;recursiveResize=0;shape=mxgraph.aws4.group;grIcon=mxgraph.aws4.group_vpc;strokeColor=#248814;fillColor=none;verticalAlign=top;align=left;spacingLeft=30;fontColor=#AAB7B8;dashed=0;" vertex="1" parent="1mSQy6n3hkQPdd9i9arQ-2">
          <mxGeometry x="880" y="580" width="650" height="285.66" as="geometry" />
        </mxCell>
        <mxCell id="1mSQy6n3hkQPdd9i9arQ-105" value="Availability Zone" style="fillColor=none;strokeColor=#147EBA;dashed=1;verticalAlign=top;fontStyle=0;fontColor=#147EBA;whiteSpace=wrap;html=1;" vertex="1" parent="1mSQy6n3hkQPdd9i9arQ-100">
          <mxGeometry x="400" y="40" width="220" height="220" as="geometry" />
        </mxCell>
        <mxCell id="1mSQy6n3hkQPdd9i9arQ-106" value="Private subnet" style="points=[[0,0],[0.25,0],[0.5,0],[0.75,0],[1,0],[1,0.25],[1,0.5],[1,0.75],[1,1],[0.75,1],[0.5,1],[0.25,1],[0,1],[0,0.75],[0,0.5],[0,0.25]];outlineConnect=0;gradientColor=none;html=1;whiteSpace=wrap;fontSize=12;fontStyle=0;container=1;pointerEvents=0;collapsible=0;recursiveResize=0;shape=mxgraph.aws4.group;grIcon=mxgraph.aws4.group_security_group;grStroke=0;strokeColor=#147EBA;fillColor=#E6F2F8;verticalAlign=top;align=left;spacingLeft=30;fontColor=#147EBA;dashed=0;" vertex="1" parent="1mSQy6n3hkQPdd9i9arQ-100">
          <mxGeometry x="410" y="70" width="200" height="165" as="geometry" />
        </mxCell>
        <mxCell id="1mSQy6n3hkQPdd9i9arQ-107" value="Container" style="outlineConnect=0;dashed=0;verticalLabelPosition=bottom;verticalAlign=top;align=center;html=1;shape=mxgraph.aws3.search_documents;fillColor=#F58534;gradientColor=none;" vertex="1" parent="1mSQy6n3hkQPdd9i9arQ-106">
          <mxGeometry x="101" y="55" width="60" height="63" as="geometry" />
        </mxCell>
        <mxCell id="1mSQy6n3hkQPdd9i9arQ-108" value="Container" style="outlineConnect=0;dashed=0;verticalLabelPosition=bottom;verticalAlign=top;align=center;html=1;shape=mxgraph.aws3.search_documents;fillColor=#F58534;gradientColor=none;" vertex="1" parent="1mSQy6n3hkQPdd9i9arQ-100">
          <mxGeometry x="430" y="130" width="60" height="63" as="geometry" />
        </mxCell>
        <mxCell id="1mSQy6n3hkQPdd9i9arQ-109" value="Fargate" style="sketch=0;points=[[0,0,0],[0.25,0,0],[0.5,0,0],[0.75,0,0],[1,0,0],[0,1,0],[0.25,1,0],[0.5,1,0],[0.75,1,0],[1,1,0],[0,0.25,0],[0,0.5,0],[0,0.75,0],[1,0.25,0],[1,0.5,0],[1,0.75,0]];outlineConnect=0;fontColor=#232F3E;fillColor=#ED7100;strokeColor=#ffffff;dashed=0;verticalLabelPosition=bottom;verticalAlign=top;align=center;html=1;fontSize=12;fontStyle=0;aspect=fixed;shape=mxgraph.aws4.resourceIcon;resIcon=mxgraph.aws4.fargate;" vertex="1" parent="1mSQy6n3hkQPdd9i9arQ-100">
          <mxGeometry x="320" y="100" width="56" height="56" as="geometry" />
        </mxCell>
        <mxCell id="1mSQy6n3hkQPdd9i9arQ-101" value="Availability Zone" style="fillColor=none;strokeColor=#147EBA;dashed=1;verticalAlign=top;fontStyle=0;fontColor=#147EBA;whiteSpace=wrap;html=1;" vertex="1" parent="1mSQy6n3hkQPdd9i9arQ-100">
          <mxGeometry x="70" y="40" width="220" height="226.34" as="geometry" />
        </mxCell>
        <mxCell id="1mSQy6n3hkQPdd9i9arQ-102" value="Private subnet" style="points=[[0,0],[0.25,0],[0.5,0],[0.75,0],[1,0],[1,0.25],[1,0.5],[1,0.75],[1,1],[0.75,1],[0.5,1],[0.25,1],[0,1],[0,0.75],[0,0.5],[0,0.25]];outlineConnect=0;gradientColor=none;html=1;whiteSpace=wrap;fontSize=12;fontStyle=0;container=1;pointerEvents=0;collapsible=0;recursiveResize=0;shape=mxgraph.aws4.group;grIcon=mxgraph.aws4.group_security_group;grStroke=0;strokeColor=#147EBA;fillColor=#E6F2F8;verticalAlign=top;align=left;spacingLeft=30;fontColor=#147EBA;dashed=0;" vertex="1" parent="1mSQy6n3hkQPdd9i9arQ-100">
          <mxGeometry x="80" y="70.67" width="200" height="165" as="geometry" />
        </mxCell>
        <mxCell id="1mSQy6n3hkQPdd9i9arQ-104" value="Container" style="outlineConnect=0;dashed=0;verticalLabelPosition=bottom;verticalAlign=top;align=center;html=1;shape=mxgraph.aws3.search_documents;fillColor=#F58534;gradientColor=none;" vertex="1" parent="1mSQy6n3hkQPdd9i9arQ-102">
          <mxGeometry x="101" y="55" width="60" height="63" as="geometry" />
        </mxCell>
        <mxCell id="1mSQy6n3hkQPdd9i9arQ-103" value="Container" style="outlineConnect=0;dashed=0;verticalLabelPosition=bottom;verticalAlign=top;align=center;html=1;shape=mxgraph.aws3.search_documents;fillColor=#F58534;gradientColor=none;" vertex="1" parent="1mSQy6n3hkQPdd9i9arQ-102">
          <mxGeometry x="19.5" y="57.33000000000004" width="60" height="63" as="geometry" />
        </mxCell>
        <mxCell id="1mSQy6n3hkQPdd9i9arQ-113" value="AWS Shield" style="sketch=0;outlineConnect=0;fontColor=#232F3E;gradientColor=none;strokeColor=#ffffff;fillColor=#232F3E;dashed=0;verticalLabelPosition=middle;verticalAlign=bottom;align=center;html=1;whiteSpace=wrap;fontSize=10;fontStyle=1;spacing=3;shape=mxgraph.aws4.productIcon;prIcon=mxgraph.aws4.shield;" vertex="1" parent="1mSQy6n3hkQPdd9i9arQ-100">
          <mxGeometry x="320" y="229.66" width="56" height="56" as="geometry" />
        </mxCell>
        <mxCell id="1mSQy6n3hkQPdd9i9arQ-111" value="" style="edgeStyle=orthogonalEdgeStyle;html=1;endArrow=none;elbow=vertical;startArrow=openThin;startFill=0;strokeColor=#545B64;rounded=0;strokeWidth=2;exitX=0.5;exitY=0;exitDx=0;exitDy=0;" edge="1" parent="1mSQy6n3hkQPdd9i9arQ-2" source="1mSQy6n3hkQPdd9i9arQ-96" target="1mSQy6n3hkQPdd9i9arQ-109">
          <mxGeometry width="100" relative="1" as="geometry">
            <mxPoint x="1232" y="990" as="sourcePoint" />
            <mxPoint x="1232" y="798.9999999999998" as="targetPoint" />
            <Array as="points">
              <mxPoint x="1228" y="910" />
            </Array>
          </mxGeometry>
        </mxCell>
        <mxCell id="1mSQy6n3hkQPdd9i9arQ-116" value="ECR" style="sketch=0;points=[[0,0,0],[0.25,0,0],[0.5,0,0],[0.75,0,0],[1,0,0],[0,1,0],[0.25,1,0],[0.5,1,0],[0.75,1,0],[1,1,0],[0,0.25,0],[0,0.5,0],[0,0.75,0],[1,0.25,0],[1,0.5,0],[1,0.75,0]];outlineConnect=0;fontColor=#232F3E;fillColor=#ED7100;strokeColor=#ffffff;dashed=0;verticalLabelPosition=bottom;verticalAlign=top;align=center;html=1;fontSize=12;fontStyle=0;aspect=fixed;shape=mxgraph.aws4.resourceIcon;resIcon=mxgraph.aws4.ecr;" vertex="1" parent="1mSQy6n3hkQPdd9i9arQ-2">
          <mxGeometry x="1412" y="451" width="78" height="78" as="geometry" />
        </mxCell>
        <mxCell id="1mSQy6n3hkQPdd9i9arQ-117" value="ECS" style="sketch=0;points=[[0,0,0],[0.25,0,0],[0.5,0,0],[0.75,0,0],[1,0,0],[0,1,0],[0.25,1,0],[0.5,1,0],[0.75,1,0],[1,1,0],[0,0.25,0],[0,0.5,0],[0,0.75,0],[1,0.25,0],[1,0.5,0],[1,0.75,0]];outlineConnect=0;fontColor=#232F3E;fillColor=#ED7100;strokeColor=#ffffff;dashed=0;verticalLabelPosition=bottom;verticalAlign=top;align=center;html=1;fontSize=12;fontStyle=0;aspect=fixed;shape=mxgraph.aws4.resourceIcon;resIcon=mxgraph.aws4.ecs;" vertex="1" parent="1mSQy6n3hkQPdd9i9arQ-2">
          <mxGeometry x="1203" y="460" width="56" height="56" as="geometry" />
        </mxCell>
        <mxCell id="1mSQy6n3hkQPdd9i9arQ-119" value="" style="edgeStyle=orthogonalEdgeStyle;html=1;endArrow=none;elbow=vertical;startArrow=openThin;startFill=0;strokeColor=#545B64;rounded=0;strokeWidth=2;exitX=1;exitY=0.5;exitDx=0;exitDy=0;exitPerimeter=0;entryX=0;entryY=0.5;entryDx=0;entryDy=0;entryPerimeter=0;" edge="1" parent="1mSQy6n3hkQPdd9i9arQ-2" source="1mSQy6n3hkQPdd9i9arQ-117" target="1mSQy6n3hkQPdd9i9arQ-116">
          <mxGeometry width="100" relative="1" as="geometry">
            <mxPoint x="1400" y="657" as="sourcePoint" />
            <mxPoint x="1400" y="473" as="targetPoint" />
            <Array as="points">
              <mxPoint x="1400" y="488" />
              <mxPoint x="1400" y="490" />
            </Array>
          </mxGeometry>
        </mxCell>
        <mxCell id="1mSQy6n3hkQPdd9i9arQ-3" value="VPC" style="points=[[0,0],[0.25,0],[0.5,0],[0.75,0],[1,0],[1,0.25],[1,0.5],[1,0.75],[1,1],[0.75,1],[0.5,1],[0.25,1],[0,1],[0,0.75],[0,0.5],[0,0.25]];outlineConnect=0;gradientColor=none;html=1;whiteSpace=wrap;fontSize=12;fontStyle=0;container=1;pointerEvents=0;collapsible=0;recursiveResize=0;shape=mxgraph.aws4.group;grIcon=mxgraph.aws4.group_vpc;strokeColor=#248814;fillColor=none;verticalAlign=top;align=left;spacingLeft=30;fontColor=#AAB7B8;dashed=0;" vertex="1" parent="1">
          <mxGeometry x="240" y="100" width="650" height="520" as="geometry" />
        </mxCell>
        <mxCell id="1mSQy6n3hkQPdd9i9arQ-5" value="Availability Zone" style="fillColor=none;strokeColor=#147EBA;dashed=1;verticalAlign=top;fontStyle=0;fontColor=#147EBA;whiteSpace=wrap;html=1;" vertex="1" parent="1mSQy6n3hkQPdd9i9arQ-3">
          <mxGeometry x="56" y="117" width="220" height="378" as="geometry" />
        </mxCell>
        <mxCell id="1mSQy6n3hkQPdd9i9arQ-6" value="Public subnet" style="points=[[0,0],[0.25,0],[0.5,0],[0.75,0],[1,0],[1,0.25],[1,0.5],[1,0.75],[1,1],[0.75,1],[0.5,1],[0.25,1],[0,1],[0,0.75],[0,0.5],[0,0.25]];outlineConnect=0;gradientColor=none;html=1;whiteSpace=wrap;fontSize=12;fontStyle=0;container=1;pointerEvents=0;collapsible=0;recursiveResize=0;shape=mxgraph.aws4.group;grIcon=mxgraph.aws4.group_security_group;grStroke=0;strokeColor=#248814;fillColor=#E9F3E6;verticalAlign=top;align=left;spacingLeft=30;fontColor=#248814;dashed=0;" vertex="1" parent="1mSQy6n3hkQPdd9i9arQ-3">
          <mxGeometry x="70" y="150" width="200" height="160" as="geometry" />
        </mxCell>
        <mxCell id="1mSQy6n3hkQPdd9i9arQ-13" value="NAT Gateway" style="sketch=0;outlineConnect=0;fontColor=#232F3E;gradientColor=none;fillColor=#8C4FFF;strokeColor=none;dashed=0;verticalLabelPosition=bottom;verticalAlign=top;align=center;html=1;fontSize=12;fontStyle=0;aspect=fixed;pointerEvents=1;shape=mxgraph.aws4.nat_gateway;" vertex="1" parent="1mSQy6n3hkQPdd9i9arQ-6">
          <mxGeometry x="20" y="62" width="56" height="56" as="geometry" />
        </mxCell>
        <mxCell id="1mSQy6n3hkQPdd9i9arQ-7" value="Private subnet" style="points=[[0,0],[0.25,0],[0.5,0],[0.75,0],[1,0],[1,0.25],[1,0.5],[1,0.75],[1,1],[0.75,1],[0.5,1],[0.25,1],[0,1],[0,0.75],[0,0.5],[0,0.25]];outlineConnect=0;gradientColor=none;html=1;whiteSpace=wrap;fontSize=12;fontStyle=0;container=1;pointerEvents=0;collapsible=0;recursiveResize=0;shape=mxgraph.aws4.group;grIcon=mxgraph.aws4.group_security_group;grStroke=0;strokeColor=#147EBA;fillColor=#E6F2F8;verticalAlign=top;align=left;spacingLeft=30;fontColor=#147EBA;dashed=0;" vertex="1" parent="1mSQy6n3hkQPdd9i9arQ-3">
          <mxGeometry x="70" y="320" width="200" height="159" as="geometry" />
        </mxCell>
        <mxCell id="1mSQy6n3hkQPdd9i9arQ-17" value="EC2" style="outlineConnect=0;dashed=0;verticalLabelPosition=bottom;verticalAlign=top;align=center;html=1;shape=mxgraph.aws3.ec2;fillColor=#F58534;gradientColor=none;" vertex="1" parent="1mSQy6n3hkQPdd9i9arQ-3">
          <mxGeometry x="160" y="380" width="56" height="56" as="geometry" />
        </mxCell>
        <mxCell id="1mSQy6n3hkQPdd9i9arQ-21" value="ALB" style="sketch=0;outlineConnect=0;fontColor=#232F3E;gradientColor=none;fillColor=#8C4FFF;strokeColor=none;dashed=0;verticalLabelPosition=bottom;verticalAlign=top;align=center;html=1;fontSize=12;fontStyle=0;aspect=fixed;pointerEvents=1;shape=mxgraph.aws4.application_load_balancer;" vertex="1" parent="1mSQy6n3hkQPdd9i9arQ-3">
          <mxGeometry x="314" y="30" width="56" height="56" as="geometry" />
        </mxCell>
        <mxCell id="1mSQy6n3hkQPdd9i9arQ-54" value="" style="edgeStyle=orthogonalEdgeStyle;html=1;endArrow=none;elbow=vertical;startArrow=openThin;startFill=0;strokeColor=#545B64;rounded=0;strokeWidth=2;entryX=-0.032;entryY=0.458;entryDx=0;entryDy=0;entryPerimeter=0;exitX=0.455;exitY=0.101;exitDx=0;exitDy=0;exitPerimeter=0;" edge="1" parent="1mSQy6n3hkQPdd9i9arQ-3" source="1mSQy6n3hkQPdd9i9arQ-5" target="1mSQy6n3hkQPdd9i9arQ-21">
          <mxGeometry width="100" relative="1" as="geometry">
            <mxPoint x="190" y="110" as="sourcePoint" />
            <mxPoint x="290" y="110" as="targetPoint" />
            <Array as="points">
              <mxPoint x="156" y="56" />
            </Array>
          </mxGeometry>
        </mxCell>
        <mxCell id="1mSQy6n3hkQPdd9i9arQ-76" value="" style="edgeStyle=orthogonalEdgeStyle;html=1;endArrow=none;elbow=vertical;startArrow=openThin;startFill=0;strokeColor=#545B64;rounded=0;strokeWidth=2;entryX=0.5;entryY=0;entryDx=0;entryDy=0;exitX=0.455;exitY=0.101;exitDx=0;exitDy=0;exitPerimeter=0;" edge="1" parent="1mSQy6n3hkQPdd9i9arQ-3" target="1mSQy6n3hkQPdd9i9arQ-77">
          <mxGeometry width="100" relative="1" as="geometry">
            <mxPoint x="110" y="149" as="sourcePoint" />
            <mxPoint x="266" y="50" as="targetPoint" />
            <Array as="points">
              <mxPoint x="110" y="-50" />
              <mxPoint x="950" y="-50" />
            </Array>
          </mxGeometry>
        </mxCell>
        <mxCell id="1mSQy6n3hkQPdd9i9arQ-8" value="Availability Zone" style="fillColor=none;strokeColor=#147EBA;dashed=1;verticalAlign=top;fontStyle=0;fontColor=#147EBA;whiteSpace=wrap;html=1;" vertex="1" parent="1">
          <mxGeometry x="640" y="210" width="220" height="380" as="geometry" />
        </mxCell>
        <mxCell id="1mSQy6n3hkQPdd9i9arQ-10" value="Public subnet" style="points=[[0,0],[0.25,0],[0.5,0],[0.75,0],[1,0],[1,0.25],[1,0.5],[1,0.75],[1,1],[0.75,1],[0.5,1],[0.25,1],[0,1],[0,0.75],[0,0.5],[0,0.25]];outlineConnect=0;gradientColor=none;html=1;whiteSpace=wrap;fontSize=12;fontStyle=0;container=1;pointerEvents=0;collapsible=0;recursiveResize=0;shape=mxgraph.aws4.group;grIcon=mxgraph.aws4.group_security_group;grStroke=0;strokeColor=#248814;fillColor=#E9F3E6;verticalAlign=top;align=left;spacingLeft=30;fontColor=#248814;dashed=0;" vertex="1" parent="1">
          <mxGeometry x="650" y="247" width="200" height="160" as="geometry" />
        </mxCell>
        <mxCell id="1mSQy6n3hkQPdd9i9arQ-15" value="EC2" style="outlineConnect=0;dashed=0;verticalLabelPosition=bottom;verticalAlign=top;align=center;html=1;shape=mxgraph.aws3.ec2;fillColor=#F58534;gradientColor=none;" vertex="1" parent="1mSQy6n3hkQPdd9i9arQ-10">
          <mxGeometry x="19" y="70" width="56" height="56" as="geometry" />
        </mxCell>
        <mxCell id="1mSQy6n3hkQPdd9i9arQ-14" value="NAT Gateway" style="sketch=0;outlineConnect=0;fontColor=#232F3E;gradientColor=none;fillColor=#8C4FFF;strokeColor=none;dashed=0;verticalLabelPosition=bottom;verticalAlign=top;align=center;html=1;fontSize=12;fontStyle=0;aspect=fixed;pointerEvents=1;shape=mxgraph.aws4.nat_gateway;" vertex="1" parent="1mSQy6n3hkQPdd9i9arQ-10">
          <mxGeometry x="121" y="70" width="56" height="56" as="geometry" />
        </mxCell>
        <mxCell id="1mSQy6n3hkQPdd9i9arQ-12" value="Private subnet" style="points=[[0,0],[0.25,0],[0.5,0],[0.75,0],[1,0],[1,0.25],[1,0.5],[1,0.75],[1,1],[0.75,1],[0.5,1],[0.25,1],[0,1],[0,0.75],[0,0.5],[0,0.25]];outlineConnect=0;gradientColor=none;html=1;whiteSpace=wrap;fontSize=12;fontStyle=0;container=1;pointerEvents=0;collapsible=0;recursiveResize=0;shape=mxgraph.aws4.group;grIcon=mxgraph.aws4.group_security_group;grStroke=0;strokeColor=#147EBA;fillColor=#E6F2F8;verticalAlign=top;align=left;spacingLeft=30;fontColor=#147EBA;dashed=0;" vertex="1" parent="1">
          <mxGeometry x="649" y="415" width="200" height="165" as="geometry" />
        </mxCell>
        <mxCell id="1mSQy6n3hkQPdd9i9arQ-16" value="EC2" style="outlineConnect=0;dashed=0;verticalLabelPosition=bottom;verticalAlign=top;align=center;html=1;shape=mxgraph.aws3.ec2;fillColor=#F58534;gradientColor=none;" vertex="1" parent="1">
          <mxGeometry x="423" y="316" width="56" height="56" as="geometry" />
        </mxCell>
        <mxCell id="1mSQy6n3hkQPdd9i9arQ-18" value="EC2" style="outlineConnect=0;dashed=0;verticalLabelPosition=bottom;verticalAlign=top;align=center;html=1;shape=mxgraph.aws3.ec2;fillColor=#F58534;gradientColor=none;" vertex="1" parent="1">
          <mxGeometry x="690" y="490" width="56" height="56" as="geometry" />
        </mxCell>
        <mxCell id="1mSQy6n3hkQPdd9i9arQ-19" value="Auto Scaling group" style="points=[[0,0],[0.25,0],[0.5,0],[0.75,0],[1,0],[1,0.25],[1,0.5],[1,0.75],[1,1],[0.75,1],[0.5,1],[0.25,1],[0,1],[0,0.75],[0,0.5],[0,0.25]];outlineConnect=0;gradientColor=none;html=1;whiteSpace=wrap;fontSize=12;fontStyle=0;container=1;pointerEvents=0;collapsible=0;recursiveResize=0;shape=mxgraph.aws4.groupCenter;grIcon=mxgraph.aws4.group_auto_scaling_group;grStroke=1;strokeColor=#D86613;fillColor=none;verticalAlign=top;align=center;fontColor=#D86613;dashed=1;spacingTop=25;" vertex="1" parent="1">
          <mxGeometry x="400" y="280" width="360" height="120" as="geometry" />
        </mxCell>
        <mxCell id="1mSQy6n3hkQPdd9i9arQ-20" value="Auto Scaling group" style="points=[[0,0],[0.25,0],[0.5,0],[0.75,0],[1,0],[1,0.25],[1,0.5],[1,0.75],[1,1],[0.75,1],[0.5,1],[0.25,1],[0,1],[0,0.75],[0,0.5],[0,0.25]];outlineConnect=0;gradientColor=none;html=1;whiteSpace=wrap;fontSize=12;fontStyle=0;container=1;pointerEvents=0;collapsible=0;recursiveResize=0;shape=mxgraph.aws4.groupCenter;grIcon=mxgraph.aws4.group_auto_scaling_group;grStroke=1;strokeColor=#D86613;fillColor=none;verticalAlign=top;align=center;fontColor=#D86613;dashed=1;spacingTop=25;" vertex="1" parent="1">
          <mxGeometry x="360" y="450" width="420" height="120" as="geometry" />
        </mxCell>
        <mxCell id="1mSQy6n3hkQPdd9i9arQ-36" value="Private subnet" style="points=[[0,0],[0.25,0],[0.5,0],[0.75,0],[1,0],[1,0.25],[1,0.5],[1,0.75],[1,1],[0.75,1],[0.5,1],[0.25,1],[0,1],[0,0.75],[0,0.5],[0,0.25]];outlineConnect=0;gradientColor=none;html=1;whiteSpace=wrap;fontSize=12;fontStyle=0;container=1;pointerEvents=0;collapsible=0;recursiveResize=0;shape=mxgraph.aws4.group;grIcon=mxgraph.aws4.group_security_group;grStroke=0;strokeColor=#147EBA;fillColor=#E6F2F8;verticalAlign=top;align=left;spacingLeft=30;fontColor=#147EBA;dashed=0;" vertex="1" parent="1">
          <mxGeometry x="300" y="991" width="200" height="159" as="geometry" />
        </mxCell>
        <mxCell id="1mSQy6n3hkQPdd9i9arQ-41" value="Lambda" style="outlineConnect=0;dashed=0;verticalLabelPosition=bottom;verticalAlign=top;align=center;html=1;shape=mxgraph.aws3.lambda_function;fillColor=#F58534;gradientColor=none;" vertex="1" parent="1mSQy6n3hkQPdd9i9arQ-36">
          <mxGeometry x="72" y="51.5" width="56" height="56" as="geometry" />
        </mxCell>
        <mxCell id="1mSQy6n3hkQPdd9i9arQ-37" value="Availability Zone" style="fillColor=none;strokeColor=#147EBA;dashed=1;verticalAlign=top;fontStyle=0;fontColor=#147EBA;whiteSpace=wrap;html=1;" vertex="1" parent="1">
          <mxGeometry x="620" y="952" width="220" height="378" as="geometry" />
        </mxCell>
        <mxCell id="1mSQy6n3hkQPdd9i9arQ-38" value="Private subnet" style="points=[[0,0],[0.25,0],[0.5,0],[0.75,0],[1,0],[1,0.25],[1,0.5],[1,0.75],[1,1],[0.75,1],[0.5,1],[0.25,1],[0,1],[0,0.75],[0,0.5],[0,0.25]];outlineConnect=0;gradientColor=none;html=1;whiteSpace=wrap;fontSize=12;fontStyle=0;container=1;pointerEvents=0;collapsible=0;recursiveResize=0;shape=mxgraph.aws4.group;grIcon=mxgraph.aws4.group_security_group;grStroke=0;strokeColor=#147EBA;fillColor=#E6F2F8;verticalAlign=top;align=left;spacingLeft=30;fontColor=#147EBA;dashed=0;" vertex="1" parent="1">
          <mxGeometry x="630" y="1161" width="200" height="159" as="geometry" />
        </mxCell>
        <mxCell id="1mSQy6n3hkQPdd9i9arQ-44" value="Elastic Cache" style="sketch=0;points=[[0,0,0],[0.25,0,0],[0.5,0,0],[0.75,0,0],[1,0,0],[0,1,0],[0.25,1,0],[0.5,1,0],[0.75,1,0],[1,1,0],[0,0.25,0],[0,0.5,0],[0,0.75,0],[1,0.25,0],[1,0.5,0],[1,0.75,0]];outlineConnect=0;fontColor=#232F3E;fillColor=#C925D1;strokeColor=#ffffff;dashed=0;verticalLabelPosition=bottom;verticalAlign=top;align=center;html=1;fontSize=12;fontStyle=0;aspect=fixed;shape=mxgraph.aws4.resourceIcon;resIcon=mxgraph.aws4.elasticache;" vertex="1" parent="1mSQy6n3hkQPdd9i9arQ-38">
          <mxGeometry x="116" y="69" width="56" height="56" as="geometry" />
        </mxCell>
        <mxCell id="1mSQy6n3hkQPdd9i9arQ-39" value="Private subnet" style="points=[[0,0],[0.25,0],[0.5,0],[0.75,0],[1,0],[1,0.25],[1,0.5],[1,0.75],[1,1],[0.75,1],[0.5,1],[0.25,1],[0,1],[0,0.75],[0,0.5],[0,0.25]];outlineConnect=0;gradientColor=none;html=1;whiteSpace=wrap;fontSize=12;fontStyle=0;container=1;pointerEvents=0;collapsible=0;recursiveResize=0;shape=mxgraph.aws4.group;grIcon=mxgraph.aws4.group_security_group;grStroke=0;strokeColor=#147EBA;fillColor=#E6F2F8;verticalAlign=top;align=left;spacingLeft=30;fontColor=#147EBA;dashed=0;" vertex="1" parent="1">
          <mxGeometry x="630" y="987" width="200" height="159" as="geometry" />
        </mxCell>
        <mxCell id="1mSQy6n3hkQPdd9i9arQ-42" value="Lambda" style="outlineConnect=0;dashed=0;verticalLabelPosition=bottom;verticalAlign=top;align=center;html=1;shape=mxgraph.aws3.lambda_function;fillColor=#F58534;gradientColor=none;" vertex="1" parent="1">
          <mxGeometry x="702" y="1038.5" width="56" height="56" as="geometry" />
        </mxCell>
        <mxCell id="1mSQy6n3hkQPdd9i9arQ-46" value="Amazon Aurora" style="sketch=0;points=[[0,0,0],[0.25,0,0],[0.5,0,0],[0.75,0,0],[1,0,0],[0,1,0],[0.25,1,0],[0.5,1,0],[0.75,1,0],[1,1,0],[0,0.25,0],[0,0.5,0],[0,0.75,0],[1,0.25,0],[1,0.5,0],[1,0.75,0]];outlineConnect=0;fontColor=#232F3E;fillColor=#C925D1;strokeColor=#ffffff;dashed=0;verticalLabelPosition=bottom;verticalAlign=top;align=center;html=1;fontSize=12;fontStyle=0;aspect=fixed;shape=mxgraph.aws4.resourceIcon;resIcon=mxgraph.aws4.aurora;" vertex="1" parent="1">
          <mxGeometry x="650" y="1230" width="56" height="56" as="geometry" />
        </mxCell>
        <mxCell id="1mSQy6n3hkQPdd9i9arQ-48" value="" style="sketch=0;points=[[0,0,0],[0.25,0,0],[0.5,0,0],[0.75,0,0],[1,0,0],[0,1,0],[0.25,1,0],[0.5,1,0],[0.75,1,0],[1,1,0],[0,0.25,0],[0,0.5,0],[0,0.75,0],[1,0.25,0],[1,0.5,0],[1,0.75,0]];outlineConnect=0;fontColor=#232F3E;fillColor=#DD344C;strokeColor=#ffffff;dashed=0;verticalLabelPosition=bottom;verticalAlign=top;align=center;html=1;fontSize=12;fontStyle=0;aspect=fixed;shape=mxgraph.aws4.resourceIcon;resIcon=mxgraph.aws4.identity_and_access_management;" vertex="1" parent="1">
          <mxGeometry x="450" y="1440" width="56" height="56" as="geometry" />
        </mxCell>
        <mxCell id="1mSQy6n3hkQPdd9i9arQ-49" value="" style="sketch=0;points=[[0,0,0],[0.25,0,0],[0.5,0,0],[0.75,0,0],[1,0,0],[0,1,0],[0.25,1,0],[0.5,1,0],[0.75,1,0],[1,1,0],[0,0.25,0],[0,0.5,0],[0,0.75,0],[1,0.25,0],[1,0.5,0],[1,0.75,0]];outlineConnect=0;fontColor=#232F3E;fillColor=#DD344C;strokeColor=#ffffff;dashed=0;verticalLabelPosition=bottom;verticalAlign=top;align=center;html=1;fontSize=12;fontStyle=0;aspect=fixed;shape=mxgraph.aws4.resourceIcon;resIcon=mxgraph.aws4.key_management_service;" vertex="1" parent="1">
          <mxGeometry x="350" y="1440" width="56" height="56" as="geometry" />
        </mxCell>
        <mxCell id="1mSQy6n3hkQPdd9i9arQ-50" value="" style="sketch=0;points=[[0,0,0],[0.25,0,0],[0.5,0,0],[0.75,0,0],[1,0,0],[0,1,0],[0.25,1,0],[0.5,1,0],[0.75,1,0],[1,1,0],[0,0.25,0],[0,0.5,0],[0,0.75,0],[1,0.25,0],[1,0.5,0],[1,0.75,0]];outlineConnect=0;fontColor=#232F3E;fillColor=#DD344C;strokeColor=#ffffff;dashed=0;verticalLabelPosition=bottom;verticalAlign=top;align=center;html=1;fontSize=12;fontStyle=0;aspect=fixed;shape=mxgraph.aws4.resourceIcon;resIcon=mxgraph.aws4.secrets_manager;" vertex="1" parent="1">
          <mxGeometry x="260" y="1440" width="56" height="56" as="geometry" />
        </mxCell>
        <mxCell id="1mSQy6n3hkQPdd9i9arQ-51" value="Security&amp;nbsp; &amp;amp; Compliance" style="fillColor=none;strokeColor=#DD3522;verticalAlign=top;fontStyle=0;fontColor=#DD3522;whiteSpace=wrap;html=1;" vertex="1" parent="1">
          <mxGeometry x="570" y="1400" width="220" height="130" as="geometry" />
        </mxCell>
        <mxCell id="1mSQy6n3hkQPdd9i9arQ-52" value="" style="sketch=0;points=[[0,0,0],[0.25,0,0],[0.5,0,0],[0.75,0,0],[1,0,0],[0,1,0],[0.25,1,0],[0.5,1,0],[0.75,1,0],[1,1,0],[0,0.25,0],[0,0.5,0],[0,0.75,0],[1,0.25,0],[1,0.5,0],[1,0.75,0]];points=[[0,0,0],[0.25,0,0],[0.5,0,0],[0.75,0,0],[1,0,0],[0,1,0],[0.25,1,0],[0.5,1,0],[0.75,1,0],[1,1,0],[0,0.25,0],[0,0.5,0],[0,0.75,0],[1,0.25,0],[1,0.5,0],[1,0.75,0]];outlineConnect=0;fontColor=#232F3E;fillColor=#E7157B;strokeColor=#ffffff;dashed=0;verticalLabelPosition=bottom;verticalAlign=top;align=center;html=1;fontSize=12;fontStyle=0;aspect=fixed;shape=mxgraph.aws4.resourceIcon;resIcon=mxgraph.aws4.cloudtrail;" vertex="1" parent="1">
          <mxGeometry x="600" y="1440" width="56" height="56" as="geometry" />
        </mxCell>
        <mxCell id="1mSQy6n3hkQPdd9i9arQ-53" value="" style="sketch=0;outlineConnect=0;fontColor=#232F3E;gradientColor=none;fillColor=#ED7100;strokeColor=none;dashed=0;verticalLabelPosition=bottom;verticalAlign=top;align=center;html=1;fontSize=12;fontStyle=0;aspect=fixed;pointerEvents=1;shape=mxgraph.aws4.instance_with_cloudwatch2;" vertex="1" parent="1">
          <mxGeometry x="702" y="1440" width="56" height="56" as="geometry" />
        </mxCell>
        <mxCell id="1mSQy6n3hkQPdd9i9arQ-55" value="" style="edgeStyle=orthogonalEdgeStyle;html=1;endArrow=none;elbow=vertical;startArrow=openThin;startFill=0;strokeColor=#545B64;rounded=0;strokeWidth=2;" edge="1" parent="1" source="1mSQy6n3hkQPdd9i9arQ-10" target="1mSQy6n3hkQPdd9i9arQ-21">
          <mxGeometry width="100" relative="1" as="geometry">
            <mxPoint x="750" y="299" as="sourcePoint" />
            <mxPoint x="902" y="210" as="targetPoint" />
            <Array as="points">
              <mxPoint x="750" y="160" />
            </Array>
          </mxGeometry>
        </mxCell>
        <mxCell id="1mSQy6n3hkQPdd9i9arQ-63" value="" style="edgeStyle=orthogonalEdgeStyle;html=1;endArrow=block;elbow=vertical;startArrow=block;startFill=1;endFill=1;strokeColor=#545B64;rounded=0;strokeWidth=2;exitX=0.5;exitY=0;exitDx=0;exitDy=0;exitPerimeter=0;entryX=0.485;entryY=0.004;entryDx=0;entryDy=0;entryPerimeter=0;" edge="1" parent="1" source="1mSQy6n3hkQPdd9i9arQ-62" target="1mSQy6n3hkQPdd9i9arQ-21">
          <mxGeometry width="100" relative="1" as="geometry">
            <mxPoint x="140" y="110" as="sourcePoint" />
            <mxPoint x="240" y="110" as="targetPoint" />
            <Array as="points">
              <mxPoint x="137" y="70" />
              <mxPoint x="581" y="70" />
            </Array>
          </mxGeometry>
        </mxCell>
        <mxCell id="1mSQy6n3hkQPdd9i9arQ-65" value="" style="edgeStyle=orthogonalEdgeStyle;html=1;endArrow=none;elbow=vertical;startArrow=openThin;startFill=0;strokeColor=#545B64;rounded=0;strokeWidth=2;entryX=0;entryY=0.5;entryDx=0;entryDy=0;entryPerimeter=0;" edge="1" parent="1" target="1mSQy6n3hkQPdd9i9arQ-62">
          <mxGeometry width="100" relative="1" as="geometry">
            <mxPoint x="10" y="189" as="sourcePoint" />
            <mxPoint x="77" y="178" as="targetPoint" />
          </mxGeometry>
        </mxCell>
        <mxCell id="1mSQy6n3hkQPdd9i9arQ-68" value="" style="edgeStyle=orthogonalEdgeStyle;html=1;endArrow=none;elbow=vertical;startArrow=openThin;startFill=0;strokeColor=#545B64;rounded=0;strokeWidth=2;exitX=0.564;exitY=0.96;exitDx=0;exitDy=0;exitPerimeter=0;" edge="1" parent="1" source="1mSQy6n3hkQPdd9i9arQ-5">
          <mxGeometry width="100" relative="1" as="geometry">
            <mxPoint x="400" y="795" as="sourcePoint" />
            <mxPoint x="560" y="660" as="targetPoint" />
            <Array as="points">
              <mxPoint x="420" y="660" />
            </Array>
          </mxGeometry>
        </mxCell>
        <mxCell id="1mSQy6n3hkQPdd9i9arQ-69" value="" style="edgeStyle=orthogonalEdgeStyle;html=1;endArrow=none;elbow=vertical;startArrow=openThin;startFill=0;strokeColor=#545B64;rounded=0;strokeWidth=2;exitX=0.409;exitY=0.974;exitDx=0;exitDy=0;exitPerimeter=0;" edge="1" parent="1" source="1mSQy6n3hkQPdd9i9arQ-8" target="1mSQy6n3hkQPdd9i9arQ-66">
          <mxGeometry width="100" relative="1" as="geometry">
            <mxPoint x="700" y="600" as="sourcePoint" />
            <mxPoint x="830" y="700" as="targetPoint" />
            <Array as="points">
              <mxPoint x="730" y="658" />
            </Array>
          </mxGeometry>
        </mxCell>
        <mxCell id="1mSQy6n3hkQPdd9i9arQ-71" value="" style="edgeStyle=orthogonalEdgeStyle;html=1;endArrow=none;elbow=vertical;startArrow=openThin;startFill=0;strokeColor=#545B64;rounded=0;strokeWidth=2;exitX=0.505;exitY=-0.057;exitDx=0;exitDy=0;exitPerimeter=0;" edge="1" parent="1" source="1mSQy6n3hkQPdd9i9arQ-70">
          <mxGeometry width="100" relative="1" as="geometry">
            <mxPoint x="430" y="590" as="sourcePoint" />
            <mxPoint x="550" y="670" as="targetPoint" />
            <Array as="points">
              <mxPoint x="468" y="670" />
            </Array>
          </mxGeometry>
        </mxCell>
        <mxCell id="1mSQy6n3hkQPdd9i9arQ-74" value="" style="edgeStyle=orthogonalEdgeStyle;html=1;endArrow=none;elbow=vertical;startArrow=openThin;startFill=0;strokeColor=#545B64;rounded=0;strokeWidth=2;entryX=0;entryY=0.5;entryDx=0;entryDy=0;entryPerimeter=0;" edge="1" parent="1" source="1mSQy6n3hkQPdd9i9arQ-36" target="1mSQy6n3hkQPdd9i9arQ-40">
          <mxGeometry width="100" relative="1" as="geometry">
            <mxPoint x="720" y="997" as="sourcePoint" />
            <mxPoint x="596" y="878" as="targetPoint" />
            <Array as="points">
              <mxPoint x="400" y="870" />
              <mxPoint x="530" y="870" />
            </Array>
          </mxGeometry>
        </mxCell>
        <mxCell id="1mSQy6n3hkQPdd9i9arQ-75" value="" style="edgeStyle=orthogonalEdgeStyle;html=1;endArrow=block;elbow=vertical;startArrow=block;startFill=1;endFill=1;strokeColor=#545B64;rounded=0;strokeWidth=2;exitX=1;exitY=0.5;exitDx=0;exitDy=0;" edge="1" parent="1" source="1mSQy6n3hkQPdd9i9arQ-33" target="1mSQy6n3hkQPdd9i9arQ-38">
          <mxGeometry width="100" relative="1" as="geometry">
            <mxPoint x="503.0000000000001" y="1260.5579999999998" as="sourcePoint" />
            <mxPoint x="643.1" y="1250.45" as="targetPoint" />
            <Array as="points">
              <mxPoint x="540" y="1241" />
              <mxPoint x="540" y="1241" />
            </Array>
          </mxGeometry>
        </mxCell>
        <mxCell id="1mSQy6n3hkQPdd9i9arQ-85" value="" style="edgeStyle=orthogonalEdgeStyle;html=1;endArrow=none;elbow=vertical;startArrow=openThin;startFill=0;strokeColor=#545B64;rounded=0;strokeWidth=2;" edge="1" parent="1" target="1mSQy6n3hkQPdd9i9arQ-78">
          <mxGeometry width="100" relative="1" as="geometry">
            <mxPoint x="1250" y="280" as="sourcePoint" />
            <mxPoint x="1170" y="160" as="targetPoint" />
            <Array as="points">
              <mxPoint x="1190" y="280" />
              <mxPoint x="1190" y="280" />
            </Array>
          </mxGeometry>
        </mxCell>
        <mxCell id="1mSQy6n3hkQPdd9i9arQ-94" value="Transication Data" style="text;html=1;align=center;verticalAlign=middle;resizable=0;points=[];autosize=1;strokeColor=none;fillColor=none;" vertex="1" parent="1">
          <mxGeometry x="1140" y="298" width="120" height="30" as="geometry" />
        </mxCell>
        <mxCell id="1mSQy6n3hkQPdd9i9arQ-95" value="Private Link" style="image;aspect=fixed;html=1;points=[];align=center;fontSize=12;image=img/lib/azure2/networking/Private_Link.svg;" vertex="1" parent="1">
          <mxGeometry x="910" y="30" width="56" height="51.33" as="geometry" />
        </mxCell>
        <mxCell id="1mSQy6n3hkQPdd9i9arQ-118" value="" style="edgeStyle=orthogonalEdgeStyle;html=1;endArrow=block;elbow=vertical;startArrow=block;startFill=1;endFill=1;strokeColor=#545B64;rounded=0;strokeWidth=2;entryX=0.5;entryY=0;entryDx=0;entryDy=0;entryPerimeter=0;" edge="1" parent="1" source="1mSQy6n3hkQPdd9i9arQ-117">
          <mxGeometry width="100" relative="1" as="geometry">
            <mxPoint x="1236" y="590" as="sourcePoint" />
            <mxPoint x="1298" y="701" as="targetPoint" />
            <Array as="points" />
          </mxGeometry>
        </mxCell>
      </root>
    </mxGraphModel>
  </diagram>
</mxfile>
